<?xml version="1.0" encoding="UTF-8"?>
<svg version="1.1" viewBox="0 0 1600 1064" width="1280" height="1280" xmlns="http://www.w3.org/2000/svg">
<path transform="translate(0)" d="m0 0h1600v1064h-1600v-1064z" fill="#000002"/>
<path transform="translate(854 423)" d="m0 0c1.57-0.00146 1.57-0.00146 3.18-0.00295 1.73 0.00611 1.73 0.00611 3.49 0.0123 1.84 6.1e-4 1.84 6.1e-4 3.71 0.00123 3.4 0.00223 6.8 0.00903 10.2 0.0178 3.67 0.00841 7.34 0.0111 11 0.0146 8.86 0.00984 17.7 0.0295 26.6 0.0503 4.17 0.00958 8.34 0.0182 12.5 0.0269 13.9 0.0293 27.7 0.0611 41.6 0.1 3.6 0.0101 7.19 0.0202 10.8 0.0303 0.894 0.00251 1.79 0.00501 2.71 0.0076 14.5 0.0402 29 0.0633 43.5 0.0794 14.9 0.0167 29.7 0.0484 44.6 0.0949 8.35 0.0257 16.7 0.0449 25.1 0.0474 7.11 0.00218 14.2 0.0179 21.3 0.0513 3.63 0.0167 7.26 0.0268 10.9 0.0197 3.93-0.00755 7.86 0.0156 11.8 0.0419 1.15-0.00708 2.3-0.0142 3.48-0.0214 7.65 0.0877 7.65 0.0877 11.5 2.21 4.69 5.49 6.6 9.23 6.52 16.5 0.00695 0.805 0.0139 1.61 0.021 2.44 0.0183 2.69 0.00801 5.37-0.00226 8.06 0.00706 1.93 0.0158 3.86 0.0261 5.79 0.0225 5.24 0.0196 10.5 0.0107 15.7-0.00511 4.37 0.00218 8.75 0.00947 13.1 0.017 10.3 0.0134 20.6-0.00329 31-0.0169 10.6-0.00108 21.3 0.0312 31.9 0.0267 9.14 0.034 18.3 0.0255 27.4-0.00493 5.46-0.00271 10.9 0.0178 16.4 0.0184 5.13 0.0124 10.3-0.0122 15.4-0.00501 1.88-0.00152 3.76 0.0111 5.65 0.0159 2.57 9.68e-4 5.14-0.0217 7.72 0.0118 0.742 0.0237 1.48 0.0359 2.25-0.0996 5.58-1.72 9.21-5.66 13-5.42 3.01-12 2.28-18.1 2.27-1.84 0.0068-1.84 0.0068-3.71 0.0137-3.39 0.0105-6.78 0.012-10.2 0.00961-3.66-4.09e-4 -7.32 0.0106-11 0.0201-7.17 0.0166-14.3 0.0221-21.5 0.0232-5.83 9.51e-4 -11.7 0.00506-17.5 0.0114-16.5 0.0176-33.1 0.0268-49.6 0.0253-0.891-7.99e-5 -1.78-1.6e-4 -2.7-2.42e-4 -1.34-1.23e-4 -1.34-1.23e-4 -2.7-2.48e-4 -14.5-8.13e-4 -28.9 0.0183-43.4 0.0465-14.8 0.0287-29.7 0.0425-44.5 0.0408-8.33-6.64e-4 -16.7 0.00483-25 0.0264-7.09 0.0182-14.2 0.0226-21.3 0.00898-3.62-0.00653-7.24-0.00665-10.9 0.0107-3.93 0.0186-7.85 0.00618-11.8-0.00926-1.14 0.0103-2.28 0.0206-3.45 0.0312-6.75-0.0587-11.1-0.914-16.9-4.53-5.06-5.19-5.15-9.66-5.16-16.6-0.00509-0.773-0.0102-1.55-0.0154-2.34-0.0157-2.59-0.0242-5.18-0.0327-7.78-0.00954-1.86-0.0194-3.72-0.0296-5.57-0.0314-6.1-0.0516-12.2-0.0702-18.3-0.00495-1.56-0.00495-1.56-0.00999-3.15-0.0308-9.8-0.0575-19.6-0.0744-29.4-0.0219-12.5-0.0639-25.1-0.133-37.6-0.0473-8.81-0.0715-17.6-0.0788-26.4-0.00495-5.26-0.02-10.5-0.0597-15.8-0.0369-4.95-0.0453-9.9-0.032-14.9-5.39e-5 -1.81-0.0103-3.63-0.0318-5.44-0.185-16.5-0.185-16.5 5.18-23.2 5.11-5.19 8.52-6.69 15.7-6.68z" fill="#FC981D"/>
<path transform="translate(594 459)" d="m0 0c1.58-0.00473 1.58-0.00473 3.19-0.00955 1.14 0.00202 2.29 0.00405 3.46 0.00613 1.76-0.00144 1.76-0.00144 3.56-0.0029 2.49-6.82e-4 4.99 0.00117 7.48 0.00534 3.79 0.00531 7.59 7.25e-5 11.4-0.00635 2.42 6.61e-4 4.85 0.00194 7.27 0.00391 1.13-0.00202 2.26-0.00405 3.42-0.00613 14.8 0.0435 26.9 1.91 38 12.6 12.1 13.4 15.4 29.2 15.5 46.7 0.00962 2.28 0.0406 4.55 0.0723 6.83 0.117 16.1-2.78 31.9-14.3 44h-2c-0.495 1.49-0.495 1.49-1 3-1.97 1.5-1.97 1.5-4.5 3-0.815 0.495-1.63 0.99-2.47 1.5-6.93 3.43-13.4 4.97-21.1 5.18-0.854 0.033-1.71 0.066-2.59 0.1-9.49 0.331-19 0.371-28.5 0.351-2.99-0.00548-5.97 5e-5 -8.96 0.00635-1.91-6.59e-4 -3.82-0.00194-5.72-0.00391-0.889 0.00202-1.78 0.00405-2.7 0.00613-6.19-0.0239-6.19-0.0239-8.42-1.14-0.0467-15-0.082-30.1-0.104-45.1-0.0103-6.98-0.0244-14-0.0473-20.9-0.0221-6.74-0.0337-13.5-0.0389-20.2-0.0037-2.57-0.0109-5.14-0.0217-7.72-0.0145-3.6-0.0165-7.2-0.0156-10.8-0.00719-1.07-0.0144-2.13-0.0218-3.23 0.00275-0.983 0.0055-1.97 0.00833-2.98-0.00184-0.851-0.00369-1.7-0.00559-2.58 0.284-2.8 1-4.91 2.25-7.43 2.51-1.26 4.23-1.13 7.04-1.13z" fill="#FCFDFF"/>
<path transform="translate(775 498)" d="m0 0c9.18 7.65 15.7 17.6 18.3 29.3 1.12 13.9 0.801 29.1-8.31 40.5-0.784 0.784-1.57 1.57-2.38 2.38h-2c-0.224 0.585-0.449 1.17-0.68 1.77-1.71 2.88-3.62 4.06-6.45 5.85-1.37 0.886-1.37 0.886-2.76 1.79-7.21 3.67-14.1 3.93-22.1 3.9-0.938 0.0161-1.88 0.0322-2.84 0.0488-12.3 0.00853-24.2-4.97-33.2-13.4-8.55-10.3-11.5-21.8-11-35 1.39-12.7 6.25-25.4 16-34 17.7-13.2 38.4-13.4 57.4-3.19z" fill="#FCFDFF"/>
<path transform="translate(551 500)" d="m0 0c8.69 6.96 13.9 16.5 16.3 27.3 0.567 8.23 0.4 15.9-1.06 24.1-0.176 1.01-0.176 1.01-0.356 2.04-1.96 10-9.38 17.6-17.3 23.5-11.5 7.66-25.3 8.08-38.6 5.86-5.64-1.42-10.4-3.86-15.4-6.86-0.752-0.442-1.5-0.884-2.28-1.34-8.87-5.88-13.5-15.5-15.7-25.7-0.408-3.68-0.466-7.3-0.438-11-0.02-0.92-0.04-1.84-0.0605-2.79 0.00481-6.83 1.58-12.1 4.5-18.2 0.495-1.07 0.99-2.14 1.5-3.25 3.64-6.67 7.3-10.5 13.5-14.8 0.607-0.456 1.21-0.913 1.84-1.38 16-11.3 38.4-8.46 53.6 2.45z" fill="#FCFDFF"/>
<path transform="translate(1035 498)" d="m0 0c0.94-0.00258 1.88-0.00516 2.85-0.00781 1.46 0.0116 1.46 0.0116 2.94 0.0234 1.44-0.0116 1.44-0.0116 2.91-0.0234 9.86 0.0269 19.4 1.56 26.7 8.62 7.31 7.95 7.31 7.95 8.57 11.7-0.375 2.75-0.375 2.75-1 5-3.99 0.745-7.99 1.4-12 2-0.77 0.137-1.54 0.273-2.33 0.414-1.98 0.211-1.98 0.211-5.67-0.414-2.07-1.91-3.71-3.88-5.36-6.15-2.49-2.8-4.57-2.76-8.19-3.05-6.84-0.116-12 0.226-17.4 4.89-0.526 0.65-0.526 0.65-1.06 1.31 1.16 3.49 1.94 4.11 5 6 2.57 0.866 2.57 0.866 5.4 1.43 1.05 0.235 2.1 0.471 3.18 0.713 1.11 0.242 2.21 0.483 3.36 0.732 29.4 6.77 29.4 6.77 37 18.2 1.68 2.99 2.8 5.48 3.06 8.94 0.103 1.2 0.206 2.39 0.312 3.62-0.0996 6.58-2.58 13.5-6.5 18.8-10.8 10.1-25.1 11.4-39.2 11-10.6-0.607-22-4.45-29.4-12.3-1.52-1.96-2.87-3.93-4.16-6.05-0.66-1.07-1.32-2.14-2-3.25-1-2.75-1-2.75-0.438-4.85 1.44-1.9 1.44-1.9 4.19-2.7 1.07-0.13 2.14-0.26 3.25-0.395 4.14-0.436 4.14-0.436 8-1.81 2-0.04 4-0.0435 6 0l2.93 5.37c0.984 1.8 0.984 1.8 3.07 2.63v2c7.86 3.57 17.6 3.86 26 2 2.15-0.898 2.15-0.898 3-3 0.231-2.72 0.135-5.26 0-8-5.7-2.9-11.2-4.63-17.4-6-25.6-5.69-25.6-5.69-32.9-15.7-4.01-6.66-4.85-13.8-3.34-21.4 1.51-4.83 3.87-7.48 7.86-10.5 1.76-1.28 1.76-1.28 3.2-2.89 1.74-1.63 3.15-2.23 5.4-2.99 2.19-0.761 4.32-1.52 6.44-2.47 2.76-1 4.78-1.23 7.7-1.24z" fill="#000002"/>
<path transform="translate(391 460)" d="m0 0c0.87 0.00562 1.74 0.0112 2.64 0.017 0.916-0.0019 1.83-0.0038 2.77-0.00575 3.04-0.00371 6.07 0.00701 9.11 0.0182 2.1 0.00119 4.2 0.00165 6.31 0.00139 4.41 0.00157 8.82 0.00987 13.2 0.0233 5.67 0.017 11.3 0.0208 17 0.0201 4.34 2.71e-4 8.68 0.00575 13 0.013 2.09 0.00319 4.18 0.00516 6.27 0.00589 2.91 0.00216 5.83 0.0109 8.74 0.0216 0.872-4.53e-4 1.74-9.06e-4 2.64-0.00137 5.95 0.0322 5.95 0.0322 7.07 1.15 0.0865 1.42 0.107 2.84 0.0977 4.25-0.00483 1.28-0.00483 1.28-0.00977 2.59-0.0126 1.35-0.0126 1.35-0.0254 2.72-0.00451 0.902-0.00902 1.8-0.0137 2.73-0.0118 2.24-0.0283 4.47-0.0488 6.71-1.54 0.0376-1.54 0.0376-3.11 0.0759-3.79 0.0939-7.58 0.194-11.4 0.296-1.64 0.0434-3.28 0.0851-4.93 0.125-2.36 0.0576-4.71 0.121-7.07 0.186-0.739 0.0167-1.48 0.0334-2.24 0.0506-3.44-0.199-3.44-0.199-6.3 1.27-0.115 2.96-0.165 5.9-0.174 8.86-0.00669 0.93-0.0134 1.86-0.0203 2.82-0.0141 2.03-0.026 4.05-0.0359 6.08-0.0164 3.21-0.0396 6.41-0.0649 9.62-0.0709 9.12-0.131 18.2-0.182 27.4-0.0318 5.57-0.073 11.1-0.12 16.7-0.016 2.13-0.0283 4.25-0.0369 6.38-0.0121 2.97-0.0363 5.95-0.0631 8.92-5.89e-4 0.882-0.00118 1.76-0.00179 2.67-0.00972 0.812-0.0194 1.62-0.0294 2.46-0.00423 0.703-0.00846 1.41-0.0128 2.13-0.302 2.32-1.11 3.96-2.26 5.99-3.65 0.0289-7.29 0.0468-10.9 0.0625-1.56 0.0126-1.56 0.0126-3.15 0.0254-1.48 0.00483-1.48 0.00483-3 0.00977-1.37 0.00786-1.37 0.00786-2.78 0.0159-2.13-0.114-2.13-0.114-3.13-1.11-0.125-3.1-0.186-6.19-0.205-9.29-0.0099-0.976-0.0198-1.95-0.03-2.96-0.0317-3.24-0.0564-6.48-0.0811-9.72-0.0206-2.24-0.0416-4.48-0.063-6.72-0.0553-5.91-0.105-11.8-0.153-17.7-0.0501-6.03-0.106-12.1-0.161-18.1-0.108-11.8-0.209-23.7-0.307-35.5-1.02-0.0251-2.05-0.0501-3.11-0.0759-3.79-0.0939-7.58-0.194-11.4-0.296-1.64-0.0434-3.28-0.0851-4.93-0.125-2.36-0.0576-4.71-0.121-7.07-0.186-0.739-0.0167-1.48-0.0334-2.24-0.0506-5.18-0.152-5.18-0.152-6.3-1.27-0.127-2.82-0.185-5.61-0.188-8.44-0.0122-0.79-0.0245-1.58-0.0371-2.39-0.00526-2.06 0.103-4.12 0.225-6.17 2.65-2.65 4.6-2.24 8.2-2.26z" fill="#FCFDFF"/>
<path transform="translate(862 467)" d="m0 0c1.36 0.00616 1.36 0.00616 2.74 0.0125 0.982 0.00193 1.96 0.00387 2.97 0.00586 1.03 0.0122 2.06 0.0245 3.12 0.0371 1.03 6.45e-4 2.06 0.00129 3.13 0.00195 7.67 0.0454 7.67 0.0454 8.81 1.19 0.125 3.07 0.186 6.13 0.205 9.2 0.0099 0.966 0.0198 1.93 0.03 2.93 0.0317 3.21 0.0564 6.42 0.0811 9.63 0.0206 2.22 0.0416 4.44 0.063 6.65 0.0553 5.85 0.105 11.7 0.153 17.6 0.0501 5.97 0.106 11.9 0.161 17.9 0.108 11.7 0.209 23.4 0.307 35.1 0.737 0.0103 1.47 0.0206 2.23 0.0312 6.93 0.0978 13.9 0.2 20.8 0.308 3.56 0.0553 7.13 0.109 10.7 0.158 4.09 0.0567 8.19 0.121 12.3 0.186 1.29 0.0167 2.57 0.0334 3.9 0.0506 1.18 0.0199 2.36 0.0399 3.58 0.0604 1.05 0.0155 2.09 0.0311 3.17 0.0471 2.36 0.158 2.36 0.158 3.36 1.16 0.0867 1.49 0.107 2.98 0.0977 4.47-0.00483 1.35-0.00483 1.35-0.00977 2.72-0.0126 1.42-0.0126 1.42-0.0254 2.87-0.00451 0.949-0.00902 1.9-0.0137 2.88-0.0118 2.35-0.0283 4.71-0.0488 7.06-11.1 0.0231-22.1 0.0409-33.2 0.0518-5.14 0.00523-10.3 0.0123-15.4 0.0236-4.95 0.0108-9.91 0.0168-14.9 0.0194-1.89 0.00185-3.79 0.00548-5.68 0.0109-2.64 0.00721-5.29 0.00826-7.93 0.0078-0.791 0.0036-1.58 0.00719-2.4 0.0109-5.4-0.0104-5.4-0.0104-6.52-1.12-0.1-1.54-0.131-3.08-0.134-4.62-0.00426-1-0.00853-2-0.0129-3.03 4.53e-4 -1.11 9.06e-4 -2.21 0.00137-3.35-0.00336-1.16-0.00672-2.32-0.0102-3.51-0.00954-3.85-0.0115-7.7-0.0125-11.5-0.0024-1.99-0.0048-3.98-0.00746-5.97-0.00815-6.26-0.0106-12.5-0.00987-18.8 6.01e-4 -6.47-0.00995-12.9-0.0257-19.4-0.0131-5.54-0.0184-11.1-0.0178-16.6 2.55e-4 -3.31-0.00354-6.63-0.0132-9.94-0.00974-3.69-0.00694-7.39-8.95e-4 -11.1-0.00562-1.1-0.0112-2.21-0.017-3.35 0.00419-1 0.00839-2.01 0.0127-3.04-5.45e-4 -0.874-0.00109-1.75-0.00165-2.65 0.366-3.09 1.41-4.01 4.48-4.34z" fill="#000002"/>
<path transform="translate(629 479)" d="m0 0c0.995 0.0187 1.99 0.0374 3.01 0.0566 7.92 0.296 14.2 1.97 20.4 6.94 11 13.8 10.5 31.3 9.04 48.2-1.08 9.5-3.25 16.8-10.6 23.1-5.01 3.27-9.86 3.67-15.7 3.66-1.05-6.87e-4 -1.05-6.87e-4 -2.12-0.00139-1.47-3e-3 -2.93-0.0108-4.4-0.0233-2.25-0.0184-4.51-0.0205-6.76-0.0203-11-0.0379-11-0.0379-12.2-1.19-0.106-2.42-0.147-4.82-0.145-7.24-0.00336-0.758-0.00672-1.52-0.0102-2.3-0.00954-2.52-0.0115-5.03-0.0125-7.55-0.00321-1.74-0.00657-3.49-0.0101-5.23-6e-3 -3.66-0.00784-7.32-0.00725-11 1.02e-4 -4.7-0.0136-9.39-0.0308-14.1-0.0111-3.6-0.0131-7.2-0.0126-10.8-0.00118-1.73-0.00563-3.46-0.0133-5.19-0.00976-2.42-0.00694-4.84-8.95e-4 -7.25-0.00562-0.721-0.0112-1.44-0.017-2.18 0.0316-4.96 0.0316-4.96 2.26-7.19 5.67-1.49 11.5-1.03 17.3-0.812z" fill="#000002"/>
<path transform="translate(1124,471)" d="m0 0c1.32 0.66 2.64 1.32 4 2v26c3.43-0.0309 3.43-0.0309 6.94-0.0625 2.35-0.0212 4.71-0.0102 7.06 0.0625 1 1 1 1 1.11 2.86-0.00524 0.791-0.0105 1.58-0.0159 2.4-0.00322 0.854-0.00645 1.71-0.00977 2.59-0.0126 1.35-0.0126 1.35-0.0254 2.72-0.00451 0.902-0.00902 1.8-0.0137 2.73-0.0118 2.24-0.0283 4.47-0.0488 6.71-0.999 0.0606-2 0.121-3.03 0.184-1.29 0.0838-2.58 0.168-3.91 0.254-1.29 0.0812-2.58 0.162-3.9 0.246-3.02-0.0344-3.02-0.0344-4.16 1.32-0.108 1.39-0.149 2.79-0.161 4.18-0.00961 0.888-0.0192 1.78-0.0291 2.69-0.00425 0.967-0.0085 1.93-0.0129 2.93-0.00855 1.48-0.00855 1.48-0.0173 2.99-0.00947 2.1-0.016 4.19-0.0198 6.29-0.00969 3.21-0.0407 6.41-0.0723 9.62-0.00653 2.03-0.0118 4.07-0.0156 6.1-0.0123 0.961-0.0247 1.92-0.0374 2.91 3e-3 0.897 6e-3 1.79 0.00909 2.72-0.00365 0.788-0.00729 1.58-0.011 2.39 0.466 2.77 1.45 4.16 3.37 6.18 2.67 0.409 2.67 0.409 5.56 0.125 2.94-0.18 2.94-0.18 5.44-0.125 2 2 2 2 2.2 5.91-0.0133 1.57-0.0372 3.14-0.0703 4.71-0.00902 0.802-0.018 1.6-0.0273 2.43-0.0236 1.98-0.0595 3.96-0.0977 5.95-10.4 2.35-22.8 4.24-32.2-1.75-5.22-4.12-6.83-7.74-7.75-14.2-0.107-1.85-0.174-3.7-0.205-5.55-0.0199-1.06-0.0399-2.12-0.0604-3.21-0.0167-1.13-0.0334-2.26-0.0506-3.42-0.0208-1.17-0.0416-2.34-0.063-3.54-0.0652-3.72-0.124-7.44-0.183-11.2-0.0432-2.53-0.0868-5.05-0.131-7.58-0.107-6.18-0.209-12.4-0.307-18.5-1.28-0.309-2.56-0.619-3.88-0.938-2.23-0.539-4.07-1.04-6.12-2.06-0.135-2.44-0.234-4.87-0.312-7.31-0.0419-0.69-0.0838-1.38-0.127-2.09-0.0488-2.02-0.0488-2.02 0.439-5.6 2.81-2.6 4.5-2.97 8.31-3.19 0.887 0.0619 1.77 0.124 2.69 0.188-0.0348-1.05-0.0696-2.1-0.105-3.18-0.0281-1.38-0.0554-2.76-0.082-4.14-0.0251-0.69-0.0503-1.38-0.0762-2.09-0.0751-5.18-0.0751-5.18 1.56-7.18 1.68-1.39 3.33-2.53 5.2-3.64 0.658-0.392 1.32-0.784 1.99-1.19 0.681-0.4 1.36-0.799 2.06-1.21 0.685-0.407 1.37-0.815 2.08-1.23 4.96-2.94 4.96-2.94 7.36-4.14z" fill="#000002"/>
<path transform="translate(965 500)" d="m0 0c1.23 0.00616 1.23 0.00616 2.49 0.0125 0.891 0.00193 1.78 0.00387 2.7 0.00586 0.933 0.0122 1.87 0.0245 2.83 0.0371 1.4 9.67e-4 1.4 9.67e-4 2.84 0.00195 6.96 0.0454 6.96 0.0454 8.1 1.19 0.0952 2.74 0.126 5.45 0.114 8.19 1.46e-4 0.858 2.92e-4 1.72 4.43e-4 2.6-6.99e-4 2.85-0.00849 5.7-0.0163 8.55-0.00186 1.97-0.00329 3.94-0.00429 5.91-0.00383 5.2-0.0137 10.4-0.0247 15.6-0.0102 5.3-0.0148 10.6-0.0198 15.9-0.0107 10.4-0.0278 20.8-0.0488 31.2-3.62 0.0579-7.25 0.0936-10.9 0.125-1.03 0.0168-2.07 0.0335-3.13 0.0508-0.986 0.00645-1.97 0.0129-2.99 0.0195-0.911 0.0105-1.82 0.0209-2.76 0.0317-2.25-0.227-2.25-0.227-4.25-2.23-0.247-2.31-0.247-2.31-0.243-5.23-0.00308-1.1-0.00615-2.19-0.00932-3.32 0.00719-1.2 0.0144-2.4 0.0218-3.63 4.58e-4 -1.25 9.16e-4 -2.49 0.00139-3.77 0.00303-2.66 0.00987-5.31 0.0233-7.97 0.0198-3.97 0.0205-7.94 0.0203-11.9 0.0166-12.7 0.162-25.3 0.572-38 0.0301-1.1 0.0602-2.21 0.0913-3.34 0.0378-1.01 0.0756-2.01 0.115-3.05 0.0302-0.881 0.0605-1.76 0.0916-2.67 0.439-2.95 1.38-4.01 4.36-4.36z" fill="#000002"/>
<path transform="translate(759 513)" d="m0 0c5.96 5.16 9.38 9.93 10 17.9 0.0878 2.77 0.142 5.54 0.182 8.31 0.0561 1.43 0.0561 1.43 0.113 2.88 0.0851 6.9-1.28 11.8-5.49 17.4-4.5 4.3-8.41 5.32-14.6 5.5-8.02-0.342-12.5-3.05-18.4-8.5-5.48-7.75-4.94-17.9-4-27 2.33-8.56 7.88-13.3 15-18 5.78-1.87 11.8-1.07 17.2 1.56z" fill="#000002"/>
<path transform="translate(533 512)" d="m0 0c7.86 7.86 9.75 14.5 9.81 25.2 0.0206 0.86 0.0412 1.72 0.0625 2.61 0.0409 6.79-0.702 13.4-5 18.9-0.579 0.443-1.16 0.887-1.75 1.34-0.576 0.464-1.15 0.928-1.75 1.41-5.26 3.17-11.9 2.54-17.8 2.09-3.44-1.25-3.44-1.25-6-3-0.866-0.557-1.73-1.11-2.62-1.69-6.05-5.89-7.5-13.3-7.69-21.5 0.0899-8.84 2.62-16 8.77-22.4 6.45-5.88 16.1-6.27 24-2.97z" fill="#000002"/>
<path transform="translate(965 466)" d="m0 0c1.23 0.00616 1.23 0.00616 2.49 0.0125 0.891 0.00193 1.78 0.00387 2.7 0.00586 0.933 0.0122 1.87 0.0245 2.83 0.0371 1.4 9.67e-4 1.4 9.67e-4 2.84 0.00195 6.96 0.0454 6.96 0.0454 8.1 1.19 0.0869 1.56 0.107 3.13 0.0977 4.69-0.0025 0.85-5e-3 1.7-0.00757 2.58-0.0091 1.09-0.0182 2.17-0.0276 3.29-0.0206 3.44-0.0412 6.89-0.0625 10.4h-22c-1.81-5.43-2.19-7.8-1.75-13.2 0.0877-1.22 0.175-2.44 0.266-3.7 0.536-3.37 0.962-4.87 4.53-5.29z" fill="#000002"/>
</svg>
